# AST/ASF file generated using VICON BodyLanguage
# -----------------------------------------------
:version 1.10
:name VICON
:units
  mass 1.0
  length 0.45
  angle deg
:documentation
   .ast/.asf automatically generated from VICON data using
   VICON BodyBuilder and BodyLanguage model FoxedUp or BRILLIANT.MOD
:root
   order TX TY TZ RX RY RZ
   axis XYZ
   position 0 0 0  
   orientation 0 0 0 
:bonedata
  begin
     id 1 
     name lhipjoint
     direction 0.630082 -0.636569 0.44472 
     length 2.82754 
     axis 0 0 0  XYZ
  end
  begin
     id 2 
     name lfemur
     direction 0.34202 -0.939693 0  
     length 7.26371  
     axis 0 0 20  XYZ
    dof rx ry rz
    limits (-160.0 20.0)
           (-70.0 70.0)
           (-60.0 70.0)
  end
  begin
     id 3 
     name ltibia
     direction 0.34202 -0.939693 0   
     length 7.88616   
     axis 0 0 20   XYZ
    dof rx
    limits (-10.0 170.0)
  end
  begin
     id 4 
     name lfoot
     direction 0.0603448 -0.165796 0.984312   
     length 1.77861   
     axis -90 7.62852e-016 20   XYZ
    dof rx rz
    limits (-45.0 90.0)
           (-70.0 20.0)
  end
  begin
     id 5 
     name ltoes
     direction 1.53577e-011 -4.21876e-011 1   
     length 0.902235   
     axis -90 7.62852e-016 20   XYZ
    dof rx
    limits (-90.0 20.0)
  end
  begin
     id 6 
     name rhipjoint
     direction -0.656778 -0.61817 0.431866   
     length 2.9117  
     axis 0 0 0  XYZ 
  end
  begin
     id 7 
     name rfemur
     direction -0.34202 -0.939693 0   
     length 6.81603   
     axis 0 0 -20   XYZ
    dof rx ry rz
    limits (-160.0 20.0)
           (-70.0 70.0)
           (-70.0 60.0)
  end
  begin
     id 8 
     name rtibia
     direction -0.34202 -0.939693 0   
     length 8.05997   
     axis 0 0 -20   XYZ
    dof rx
    limits (-10.0 170.0)
 end
 begin
     id 9 
     name rfoot
     direction -0.0862404 -0.236944 0.967688   
     length 1.84899  
     axis -90 -7.62852e-016 -20   XYZ
    dof rx rz
    limits (-45.0 90.0)
           (-20.0 70.0)
  end
  begin
     id 10 
     name rtoes
     direction -1.53561e-011 -4.21798e-011 1   
     length 0.931579   
     axis -90 -7.62852e-016 -20   XYZ
    dof rx
    limits (-90.0 20.0)
  end
  begin
     id 11 
     name lowerback
     direction -0.0110203 0.991769 -0.127564   
     length 2.05686   
     axis 0 0 0   XYZ
    dof rx ry rz
    limits (-20.0 45.0)
           (-30.0 30.0)
           (-30.0 30.0)
  end
  begin
     id 12 
     name upperback
     direction 0.0109719 0.99993 -0.00432479   
     length 2.06234   
     axis 0 0 0   XYZ
    dof rx ry rz
    limits (-20.0 45.0)
           (-30.0 30.0)
           (-30.0 30.0)
  end
  begin
     id 13 
     name thorax
     direction 0.0173308 0.998351 0.0547306   
     length 2.09856   
     axis 0 0 0   XYZ
    dof rx ry rz
    limits (-20.0 45.0)
           (-30.0 30.0)
           (-30.0 30.0)
  end
  begin
     id 14 
     name lowerneck
     direction -0.0311736 0.989033 0.144366   
     length 1.98151   
     axis 0 0 0   XYZ
    dof rx ry rz
    limits (-20.0 45.0)
           (-30.0 30.0)
           (-30.0 30.0)
  end
  begin
     id 15 
     name upperneck
     direction 0.0421057 0.975772 -0.214698   
     length 2.01457   
     axis 0 0 0   XYZ
    dof rx ry rz
    limits (-20.0 45.0)
           (-30.0 30.0)
           (-30.0 30.0)
  end
  begin
     id 16
     name head
     direction 0.0136911 0.995958 -0.0887718  
     length 2.03562  
     axis 0 0 0   XYZ
    dof rx ry rz
    limits (-20.0 45.0)
           (-30.0 30.0)
           (-30.0 30.0)
  end
  begin
     id 17 
     name lclavicle
     direction 0.915335 0.396201 0.0720134  
     length 4.16217  
     axis 0 0 0   XYZ
    dof ry rz
    limits (-20.0 10.0)
           (0.0 20.0)
  end
  begin
     id 18 
     name lhumerus
     direction 1 -4.48965e-011 6.383e-018   
     length 4.93042   
     axis -180 -30 -90   XYZ
    dof rx ry rz
    limits (-60.0 90.0)
           (-90.0 90.0)
           (-90.0 90.0)
  end
  begin
     id 19
     name lradius
     direction 1 -4.48972e-011 8.8689e-027   
     length 3.68177   
     axis -180 -30 -90   XYZ
    dof rx
    limits (-10.0 170.0)
  end
  begin
     id 20
     name lwrist
     direction 1 -4.48953e-011 1.17971e-026   
     length 1.84089   
     axis -7.69454e-015 90 90   XYZ
    dof ry
    limits (-180.0 0.0)
 end
  begin
     id 21 
     name lhand
     direction 1 -4.49027e-011 2.35802e-026   
     length 0.721479   
     axis -1.50533e-014 90 90   XYZ
    dof rx rz
    limits (-90.0 90.0)
           (-45.0 45.0)
  end
  begin
     id 22 
     name lfingers
     direction 1 -4.48915e-011 4.72027e-026   
     length 0.581675   
     axis -3.01059e-014 90 90   XYZ
    dof rx
    limits (0.0 90.0)
  end
  begin
     id 23
     name lthumb
     direction 0.707107 -6.34948e-011 0.707107   
     length 0.835172   
     axis -90 45 -5.12164e-014   XYZ
    dof rx rz
    limits (-45.0 45.0)
           (-45.0 45.0)
  end
  begin
     id 24 
     name rclavicle
     direction -0.882781 0.469197 0.0234974   
     length 3.95647  
     axis 0 0 0   XYZ 
    dof ry rz
    limits (-10.0 20.0)
           (-20.0 0.0)
  end
  begin
     id 25 
     name rhumerus
     direction -1 -4.48965e-011 -1.54906e-018  
     length 5.07905   
     axis -180 30 90   XYZ
    dof rx ry rz
    limits (-90.0 60.0)
           (-90.0 90.0)
           (-90.0 90.0)
  end
  begin
     id 26 
     name rradius
     direction -1 -4.48972e-011 5.47489e-027   
     length 3.54394   
     axis -180 30 90   XYZ
    dof rx
    limits (-10.0 170.0)
  end
  begin
     id 27 
     name rwrist
     direction -1 -4.48955e-011 1.17969e-026   
     length 1.77197   
     axis -7.69454e-015 -90 -90   XYZ
    dof ry
    limits (-180.0 0.0)
  end
  begin
     id 28
     name rhand
     direction -1 -4.48982e-011 2.35888e-026   
     length 0.681156   
     axis -1.50533e-014 -90 -90   XYZ
    dof rx rz
    limits (-90.0 90.0)
           (-45.0 45.0)
  end
  begin
     id 29
     name rfingers
     direction -1 -4.48955e-011 4.71877e-026   
     length 0.549165   
     axis -3.01059e-014 -90 -90   XYZ
    dof rx
    limits (0.0 90.0)
  end
  begin
     id 30
     name rthumb
     direction -0.707107 -6.3491e-011 0.707107   
     length 0.788495   
     axis -90 -45 5.12164e-014   XYZ
    dof rx rz
    limits (-45.0 45.0)
           (-45.0 45.0)
  end
:hierarchy
  begin
    root lhipjoint rhipjoint lowerback
    lhipjoint lfemur
    lfemur ltibia
    ltibia lfoot
    lfoot ltoes
    rhipjoint rfemur
    rfemur rtibia
    rtibia rfoot
    rfoot rtoes
    lowerback upperback
    upperback thorax
    thorax lowerneck lclavicle rclavicle
    lowerneck upperneck
    upperneck head
    lclavicle lhumerus
    lhumerus lradius
    lradius lwrist
    lwrist lhand lthumb
    lhand lfingers
    rclavicle rhumerus
    rhumerus rradius
    rradius rwrist
    rwrist rhand rthumb
    rhand rfingers
  end

#!OML:ASF H:\Bending\Project 1\Capture day 1\Session 1\Subject.ASF
:FULLY-SPECIFIED
:DEGREES
203
root -9.53417 17.9783 -16.5472 -151.149 87.1425 -155.611
lowerback 5.11112 -0.413033 -0.313601
upperback -1.67019 -0.456338 2.24697
thorax -4.57613 -0.175686 2.5444
lowerneck -22.6977 -2.99949 -5.04646
upperneck 29.2801 -3.38472 4.07723
head 13.9416 -1.30381 1.9072
rclavicle -7.1314e-015 6.36111e-015
rhumerus -47.5295 29.0962 -98.4499
rradius 86.8334
rwrist -8.27124
rhand -30.2036 -27.7293
rfingers 7.12502
rthumb -3.5141 -57.68
lclavicle -7.1314e-015 6.36111e-015
lhumerus -53.7059 -29.8291 108.715
lradius 93.3389
lwrist 33.4533
lhand -52.1071 12.4009
lfingers 7.12502
lthumb -24.6101 40.8388
rfemur 6.63267 -2.42638 14.2357
rtibia -1.27222e-014
rfoot -11.3355 -13.5983
rtoes 5.96457
lfemur -7.45538 -15.1807 -12.4734
ltibia 22.3481
lfoot -22.8284 11.0489
ltoes -10.4619
204
root -9.51636 17.9717 -16.5438 -153.47 87.1322 -157.745
lowerback 4.98677 -0.393379 -0.328863
upperback -1.7583 -0.431101 2.23285
thorax -4.59849 -0.162064 2.53552
lowerneck -22.651 -3.07692 -5.22474
upperneck 29.3102 -3.53851 4.40208
head 13.9658 -1.34233 2.04159
rclavicle -8.07563e-015 -1.59028e-015
rhumerus -47.7252 28.6919 -98.3383
rradius 87.7818
rwrist -8.77857
rhand -29.418 -25.5729
rfingers 7.12502
rthumb -2.75536 -55.5349
lclavicle -8.07563e-015 -1.59028e-015
lhumerus -53.023 -29.7559 108.606
lradius 93.784
lwrist 33.0022
lhand -52.1069 12.5186
lfingers 7.12502
lthumb -24.6099 40.9566
rfemur 6.92115 -2.46607 14.1366
rtibia -9.54166e-015
rfoot -11.3767 -13.6382
rtoes 5.78796
lfemur -7.15791 -15.0302 -12.6164
ltibia 22.2653
lfoot -22.7762 10.8349
ltoes -10.46
205
root -9.50058 17.9655 -16.5399 -155.495 87.1217 -159.602
lowerback 4.86285 -0.373903 -0.332
upperback -1.84198 -0.405057 2.22126
thorax -4.61657 -0.148354 2.52238
lowerneck -22.5867 -3.15977 -5.36992
upperneck 29.3249 -3.68259 4.6334
head 13.9769 -1.38692 2.13412
rclavicle 2.23633e-016 3.57812e-015
rhumerus -47.7286 28.1809 -98.2304
rradius 88.6486
rwrist -9.24493
rhand -29.1279 -23.9534
rfingers 7.12502
rthumb -2.4752 -53.9187
lclavicle 2.23633e-016 3.57812e-015
lhumerus -52.2641 -29.6291 108.447
lradius 94.2008
lwrist 32.5297
lhand -52.0906 12.7349
lfingers 7.12502
lthumb -24.5943 41.175
rfemur 7.17136 -2.4984 14.0545
rtibia 1.11319e-014
rfoot -11.3656 -13.6928
rtoes 5.45606
lfemur -6.89265 -14.8771 -12.7373
ltibia 22.1921
lfoot -22.6973 10.6359
ltoes -10.5361
206
root -9.48653 17.9595 -16.5354 -157.126 87.1232 -161.087
lowerback 4.74535 -0.35425 -0.336953
upperback -1.92396 -0.377907 2.22463
thorax -4.63647 -0.133673 2.52584
lowerneck -22.5132 -3.24378 -5.48111
upperneck 29.3383 -3.80317 4.74853
head 13.9808 -1.43463 2.17812
rclavicle 5.24295e-015 5.96354e-015
rhumerus -47.5421 27.5548 -98.069
rradius 89.4719
rwrist -9.47967
rhand -29.0244 -23.0036
rfingers 7.12502
rthumb -2.37525 -52.9701
lclavicle 5.24295e-015 5.96354e-015
lhumerus -51.4509 -29.4569 108.238
lradius 94.6186
lwrist 32.1135
lhand -51.9576 13.0994
lfingers 7.12502
lthumb -24.4669 41.5567
rfemur 7.38132 -2.51157 13.9891
rtibia 7.95139e-015
rfoot -11.3102 -13.7519
rtoes 5.00512
lfemur -6.65621 -14.7311 -12.8379
ltibia 22.1336
lfoot -22.6092 10.4649
ltoes -10.6256
207
root -9.47391 17.9541 -16.5304 -158.407 87.1356 -162.249
lowerback 4.63574 -0.337913 -0.349216
upperback -2.00677 -0.354482 2.24543
thorax -4.66146 -0.120144 2.55201
lowerneck -22.4462 -3.32589 -5.56592
upperneck 29.3565 -3.8968 4.7609
head 13.9834 -1.48274 2.18096
rclavicle 1.40392e-015 2.82274e-014
rhumerus -47.2214 26.8363 -97.8302
rradius 90.3238
rwrist -9.38562
rhand -28.8296 -22.6367
rfingers 7.12502
rthumb -2.18718 -52.6052
lclavicle 1.40392e-015 2.82274e-014
lhumerus -50.6025 -29.2735 107.972
lradius 95.0607
lwrist 31.8223
lhand -51.6444 13.5924
lfingers 7.12502
lthumb -24.1666 42.09
rfemur 7.54581 -2.50936 13.9394
rtibia 2.06736e-014
rfoot -11.2265 -13.8109
rtoes 4.4631
lfemur -6.45929 -14.5933 -12.9171
ltibia 22.0934
lfoot -22.5235 10.3174
ltoes -10.6738
